# xmcd
#
# Track frame offsets: 
#        150
#        13502
#        25888
#        38611
#        51504
#        63715
#        76376
#        89014
#        101777
#        114235
#        126658
#        138952
#        151534
#        163920
#        176953
#        189507
#        202423
#        215318
#        227758
#        240116
#        252369
#        264109
#        276012
#        287760
#        300550
#        312288
#
# Disc length: 4328 seconds
#
# Revision: 4
# Processed by: cddbd v1.5.2PL0 Copyright (c) Steve Scherf et al.
# Submitted via: ExactAudioCopy v0.99pb4
#
DISCID=7210e61a
DTITLE=Williams, Hank - Hillbilly Hero [Disc 1]
DYEAR=2002
DGENRE=Country
TTITLE0=Calling You
TTITLE1=Never Again
TTITLE2=Wealth Won't Save Your Soul
TTITLE3=When God Comes And Gathers His Jewels
TTITLE4=My Love For You
TTITLE5=I Don't Care (If Tomorrow Never Comes)
TTITLE6=Honky Tonkin'
TTITLE7=Pan American
TTITLE8=Move It On Over
TTITLE9=I Saw The Light
TTITLE10=(Last Night) I Heard You Crying In Your Sleep
TTITLE11=Six More Miles
TTITLE12=Fly Trouble
TTITLE13=On The Banks Of The Old Pontchartrain
TTITLE14=Rootie Tootie
TTITLE15=I Can't Get You Off Of My Mind
TTITLE16=I'm A Long Gone Daddy
TTITLE17=Honky Tonkin' 
TTITLE18=My Sweet Love Ain't Around
TTITLE19=The Blues Come Around
TTITLE20=A Mansion On The Hill
TTITLE21=I'll Be A Bachelor 'Til I Die
TTITLE22=Lost On The River
TTITLE23=There'll Be No Teardrops Tonight
TTITLE24=I Heard My Mother Praying For Me
TTITLE25=Lovesick Blues
EXTD=YEAR: 2002
EXTT0=
EXTT1=
EXTT2=
EXTT3=
EXTT4=
EXTT5=
EXTT6=
EXTT7=
EXTT8=
EXTT9=
EXTT10=
EXTT11=
EXTT12=
EXTT13=
EXTT14=
EXTT15=
EXTT16=
EXTT17=
EXTT18=
EXTT19=
EXTT20=
EXTT21=
EXTT22=
EXTT23=
EXTT24=
EXTT25=
PLAYORDER=
